<svg width="195" height="230" viewBox="0 0 195 230" fill="none" xmlns="http://www.w3.org/2000/svg">
<path d="M119.037 206.25C121.907 206.25 124.66 207.457 126.689 209.606C128.719 211.755 129.859 214.669 129.859 217.708C129.859 220.747 128.719 223.662 126.689 225.811C124.66 227.959 121.907 229.167 119.037 229.167H75.7482C72.878 229.167 70.1254 227.959 68.0958 225.811C66.0663 223.662 64.9261 220.747 64.9261 217.708C64.9261 214.669 66.0663 211.755 68.0958 209.606C70.1254 207.457 72.878 206.25 75.7482 206.25H119.037ZM140.681 171.875C143.551 171.875 146.304 173.082 148.333 175.231C150.363 177.38 151.503 180.294 151.503 183.333C151.503 186.372 150.363 189.287 148.333 191.436C146.304 193.584 143.551 194.792 140.681 194.792H54.104C51.2337 194.792 48.4811 193.584 46.4516 191.436C44.422 189.287 43.2818 186.372 43.2818 183.333C43.2818 180.294 44.422 177.38 46.4516 175.231C48.4811 173.082 51.2337 171.875 54.104 171.875H140.681ZM97.3925 0C105.78 0 113.95 1.12292 121.731 3.24271C124.513 3.9994 126.896 5.8949 128.357 8.5122C129.819 11.1295 130.238 14.2542 129.523 17.199C128.809 20.1437 127.018 22.6672 124.546 24.2144C122.074 25.7616 119.123 26.2057 116.342 25.449C100.94 21.2299 84.6753 22.2517 69.8529 28.3694C55.0306 34.4871 42.4035 45.3903 33.7622 59.5327C25.1209 73.6751 20.9039 90.339 21.7094 107.161C22.5148 123.984 28.3017 140.111 38.2495 153.255C39.9383 155.635 40.6859 158.618 40.334 161.572C39.9821 164.525 38.5583 167.218 36.3641 169.079C34.1699 170.941 31.3776 171.825 28.5784 171.545C25.7792 171.265 23.1928 169.842 21.367 167.578C9.89864 152.412 2.70981 134.124 0.628584 114.822C-1.45265 95.5189 1.65839 75.9863 9.60334 58.4738C17.5483 40.9612 30.004 26.1811 45.5356 15.8359C61.0673 5.49076 79.0431 0.00134428 97.3925 0ZM97.3925 57.2917C99.6499 57.2926 101.851 58.041 103.686 59.432C105.522 60.823 106.901 62.7869 107.63 65.049L109.037 69.3802C112.284 79.4521 119.751 87.3698 129.274 90.8073L133.354 92.2854C135.488 93.0597 137.341 94.5207 138.652 96.4642C139.963 98.4077 140.668 100.736 140.668 103.125C140.668 105.514 139.963 107.842 138.652 109.786C137.341 111.729 135.488 113.19 133.354 113.965L129.264 115.454C119.751 118.892 112.273 126.798 109.026 136.881L107.63 141.201C106.899 143.461 105.519 145.422 103.683 146.81C101.848 148.199 99.6483 148.945 97.3925 148.945C95.1366 148.945 92.9371 148.199 91.1015 146.81C89.2659 145.422 87.886 143.461 87.1547 141.201L85.7478 136.87C84.1451 131.898 81.4876 127.382 77.9794 123.668C74.4713 119.953 70.2058 117.14 65.5105 115.443L61.4305 113.965C59.2965 113.19 57.4443 111.729 56.1329 109.786C54.8215 107.842 54.1166 105.514 54.1166 103.125C54.1166 100.736 54.8215 98.4077 56.1329 96.4642C57.4443 94.5207 59.2965 93.0597 61.4305 92.2854L65.5213 90.7958C75.034 87.3583 82.512 79.4521 85.7587 69.3688L87.1547 65.049C88.9728 60.5573 92.5441 57.2917 97.3925 57.2917ZM97.3925 93.9125C94.8324 97.3236 91.9132 100.414 88.6915 103.125C91.9237 105.837 94.824 108.904 97.3925 112.326C99.9609 108.911 102.858 105.844 106.083 103.125C102.865 100.414 99.9491 97.323 97.3925 93.9125ZM178.548 69.1052C179.925 68.7298 181.358 68.6454 182.766 68.8569C184.174 69.0684 185.529 69.5716 186.753 70.3378C187.977 71.104 189.047 72.1181 189.901 73.3222C190.754 74.5263 191.376 75.8968 191.729 77.3552C193.771 85.7742 194.801 94.4327 194.792 103.125C194.792 127.497 186.783 149.921 173.418 167.578C172.547 168.805 171.453 169.835 170.199 170.605C168.945 171.376 167.558 171.872 166.12 172.064C164.682 172.256 163.222 172.14 161.826 171.724C160.431 171.307 159.129 170.598 157.998 169.638C156.867 168.678 155.929 167.487 155.241 166.137C154.553 164.786 154.128 163.302 153.991 161.774C153.855 160.246 154.01 158.705 154.447 157.241C154.884 155.778 155.594 154.422 156.535 153.255C167.313 139.042 173.175 121.353 173.147 103.125C173.147 96.1813 172.314 89.4667 170.766 83.0615C170.412 81.6041 170.332 80.0871 170.531 78.5969C170.73 77.1068 171.204 75.6728 171.927 74.3768C172.649 73.0808 173.606 71.9482 174.742 71.0437C175.878 70.1392 177.171 69.4805 178.548 69.1052ZM173.147 0C177.054 0 179.619 2.14271 180.658 3.17396C181.913 4.43437 182.801 6.03854 183.569 7.65417C184.588 9.532 186.089 11.0656 187.898 12.0771C189.337 12.9135 190.679 13.7042 191.837 15.0104C193.732 17.1544 194.786 19.9807 194.786 22.9167C194.786 25.8526 193.732 28.6789 191.837 30.8229C190.679 32.1292 189.348 32.9198 187.887 33.7563C186.078 34.7678 184.577 36.3013 183.558 38.1792C182.725 39.8292 181.967 41.3417 180.658 42.6479C178.627 44.6869 175.935 45.8236 173.137 45.8236C170.338 45.8236 167.646 44.6869 165.615 42.6479C164.316 41.3531 163.559 39.8177 162.726 38.1792C161.706 36.3013 160.206 34.7678 158.397 33.7563C156.934 33.0255 155.602 32.0332 154.458 30.8229C152.565 28.6774 151.513 25.8504 151.515 22.9144C151.517 19.9784 152.572 17.153 154.468 15.0104C155.612 13.8002 156.945 12.8079 158.408 12.0771C160.216 11.0656 161.717 9.532 162.736 7.65417C163.559 6.01562 164.327 4.48021 165.626 3.18542C166.654 2.13125 169.23 0 173.147 0Z" fill="#E7E8EC"/>
</svg>
