<svg width="105" height="109" viewBox="0 0 105 109" fill="none" xmlns="http://www.w3.org/2000/svg">
<path d="M105 87.2986C105 91.4658 102.873 99.4906 98.0953 103.899C97.1397 104.701 96.1841 104.248 96.6041 103.079C97.9956 99.3645 101.177 90.7722 99.6863 88.7946C98.6309 87.2929 94.2728 87.4075 90.5553 87.7514C88.8593 87.9864 87.3681 88.0953 86.213 88.3533C85.1418 88.445 84.9266 87.419 85.9977 86.6165C87.3931 85.5422 88.9347 84.7143 90.5658 84.1632C96.6041 82.1914 103.582 83.3779 104.585 84.6389C104.774 84.8797 105 85.5618 105 87.2986ZM94.9081 94.7101C93.5275 95.8723 92.0729 96.9259 90.5553 97.8627C79.4133 105.171 64.9791 109 52.4457 109C32.2672 109 14.2205 100.878 0.526694 87.2871C-0.649464 86.2439 0.321917 84.7306 1.6976 85.5503C16.4521 94.9508 34.714 100.637 53.6166 100.637C65.5147 100.637 78.3369 98.2066 90.5553 92.979C91.4112 92.6294 92.3668 92.1536 93.2017 91.8211C95.1287 90.8754 96.8247 93.2083 94.9081 94.7101ZM62.5113 31.486C62.5113 25.5189 62.7318 22.0052 60.9203 18.9902C59.3136 16.5082 56.5465 15.0179 52.682 15.2529C48.4919 15.5051 43.992 18.5029 42.8474 23.9999C42.6216 25.261 41.9495 26.4991 40.5528 26.7685L27.7674 24.9916C26.8537 24.7623 25.4623 23.9999 25.9191 22.0052C28.6652 6.23643 41.0096 0.73943 52.6872 0H55.4281C61.8339 0 70.0671 2.00047 75.3335 7.24527C81.7236 13.7568 81.041 22.5039 81.041 32.0076V54.5172C81.041 61.2695 83.5509 64.2616 86.0712 67.7811C86.7538 69.0364 86.9901 70.5153 85.8402 71.5355C82.5322 74.755 79.1765 77.9157 75.7746 81.0163C74.8557 81.7787 73.207 81.8589 72.5716 81.2742C68.5286 77.5771 67.5415 75.525 65.0369 71.7706C60.6788 76.7631 57.019 79.5202 52.6662 81.0163C49.6055 81.8666 46.4571 82.2828 43.299 82.2544C32.325 82.2544 23.6351 74.7856 23.6351 60.0142C23.6351 48.2693 29.3583 40.2846 37.812 36.5072C46.2656 32.7241 58.5522 31.5204 62.5113 31.4974M60.0067 61.258C62.7371 56.2597 62.5113 52.1671 62.5113 43.0016C59.0878 43.0016 55.6539 43.2595 52.6872 44.0219C47.2002 45.7587 42.8421 49.5246 42.8421 57.5208C42.8421 63.7687 45.8245 68.0218 50.8547 68.0218C51.5478 68.0218 52.1569 67.9358 52.682 67.7639C56.1999 66.6977 58.3947 64.7718 60.0067 61.258Z" fill="#C5C06F"/>
</svg>
