<svg width="413" height="490" viewBox="0 0 413 490" fill="none" xmlns="http://www.w3.org/2000/svg">
<path d="M258.408 127.378C274.259 122.218 289.963 118.319 306.383 119.492C345.092 122.574 374.289 137.449 393.964 163.898C311.364 216.497 331.084 327.002 407.556 360.511C392.331 399.929 372.707 438.399 340.883 466.938L340.871 466.927C328.143 479.265 315.016 484.325 301.812 484.961C288.485 485.603 274.794 481.753 261.035 475.741L261.015 475.732L260.995 475.724L259.568 475.13C229.65 462.853 201.885 462.521 170.266 475.719L170.248 475.726L170.229 475.733C150.935 484.041 136.685 486.766 124.621 485.092C112.653 483.431 102.303 477.366 90.9229 466.927C25.3282 399.274 -2.45521 314.12 4.55762 245.228C8.06351 210.787 20.242 180.554 40.5537 158.508C60.7883 136.545 89.2886 122.49 125.967 120.594C143.693 121.539 158.793 126.4 172.313 131.344C185.633 136.214 198.027 141.449 209.382 142.312L209.868 142.349L210.345 142.251C226.632 138.938 242.761 132.472 258.408 127.378ZM305.376 3.84668C307.786 36.1083 292.86 64.3386 272.514 84.0459C261.988 94.2407 250.097 102.064 238.599 106.915C228.236 111.286 218.408 113.154 210.271 112.38C208.084 56.4014 252.93 10.1763 305.376 3.84668Z" fill="#E7E8EC" stroke="#E7E8EC" stroke-width="7"/>
</svg>
