<svg width="103" height="103" viewBox="0 0 103 103" fill="none" xmlns="http://www.w3.org/2000/svg">
<path d="M90.2973 2H12.7027C9.86417 2 7.14189 3.1276 5.13475 5.13475C3.1276 7.14189 2 9.86417 2 12.7027V90.2973C2 93.1358 3.1276 95.8581 5.13475 97.8652C7.14189 99.8724 9.86417 101 12.7027 101H90.2973C93.1358 101 95.8581 99.8724 97.8652 97.8652C99.8724 95.8581 101 93.1358 101 90.2973V12.7027C101 9.86417 99.8724 7.14189 97.8652 5.13475C95.8581 3.1276 93.1358 2 90.2973 2Z" fill="#869ABE" stroke="white" stroke-width="4" stroke-linecap="round" stroke-linejoin="round"/>
<path d="M49.7242 34.8521L48.7791 40.0778C48.3956 42.2173 46.3026 43.9529 44.1138 43.9529C43.018 43.9529 42.103 43.5197 41.5112 42.819" fill="#869ABE"/>
<path d="M49.7242 34.8521L48.7791 40.0778C48.3956 42.2173 46.3026 43.9529 44.1138 43.9529C43.018 43.9529 42.103 43.5197 41.5112 42.819" stroke="white" stroke-width="4" stroke-linecap="round" stroke-linejoin="round"/>
<path d="M50.8338 28.4147L49.7017 34.9114C49.3225 37.086 47.2706 38.8475 45.1193 38.8475C42.9679 38.8475 41.5345 37.0833 41.9137 34.9114L43.0432 28.4147M22.8875 32.3508C23.264 30.1762 25.3186 28.4147 27.4673 28.4147C29.6186 28.4147 31.0547 30.1762 30.6755 32.3508L29.5433 38.8475M23.5733 28.4147L21.7554 38.8475L23.5733 28.4147Z" fill="#869ABE"/>
<path d="M50.8338 28.4147L49.7017 34.9114C49.3225 37.086 47.2706 38.8475 45.1193 38.8475C42.9679 38.8475 41.5345 37.0833 41.9137 34.9114L43.0432 28.4147M22.8875 32.3508C23.264 30.1762 25.3186 28.4147 27.4673 28.4147C29.6186 28.4147 31.0547 30.1762 30.6755 32.3508L29.5433 38.8475M23.5733 28.4147L21.7554 38.8475" stroke="white" stroke-width="4" stroke-linecap="round" stroke-linejoin="round"/>
<path d="M30.6754 32.2895C31.0533 30.1487 33.0983 28.4147 35.2424 28.4147C37.3865 28.4147 38.8176 30.1487 38.4398 32.2895L37.3087 38.6849M63.85 64.5156L63.8285 64.6387C62.8583 70.1324 57.6106 74.5851 52.111 74.5851C46.6088 74.5851 42.9343 70.1324 43.9045 64.6387L45.6948 54.505C46.665 49.0113 51.9127 44.5586 57.415 44.5586C62.9146 44.5586 66.589 49.0113 65.6188 54.505L65.5974 54.6281M30.3753 59.5705C34.5295 59.5705 37.3007 62.9315 36.5663 67.0792C35.832 71.2269 31.8761 74.5851 27.722 74.5851H15.3184L20.6223 44.5586H33.0259C37.1801 44.5586 39.9513 47.9196 39.217 52.0646C38.4826 56.2096 34.5295 59.5705 30.3753 59.5705ZM30.3753 59.5705H17.969H30.3753ZM86.1378 64.6387H72.815H86.1378ZM67.7576 74.5851L83.0235 44.5586L87.6816 74.5851" fill="#869ABE"/>
<path d="M30.6754 32.2895C31.0533 30.1487 33.0983 28.4147 35.2424 28.4147C37.3865 28.4147 38.8176 30.1487 38.4398 32.2895L37.3087 38.6849M63.85 64.5156L63.8285 64.6387C62.8583 70.1324 57.6106 74.5851 52.111 74.5851C46.6088 74.5851 42.9343 70.1324 43.9045 64.6387L45.6948 54.505C46.665 49.0113 51.9127 44.5586 57.415 44.5586C62.9146 44.5586 66.589 49.0113 65.6188 54.505L65.5974 54.6281M30.3753 59.5705C34.5295 59.5705 37.3007 62.9315 36.5663 67.0792C35.832 71.2269 31.8761 74.5851 27.722 74.5851H15.3184L20.6223 44.5586H33.0259C37.1801 44.5586 39.9513 47.9196 39.217 52.0646C38.4826 56.2096 34.5295 59.5705 30.3753 59.5705ZM30.3753 59.5705H17.969M86.1378 64.6387H72.815M67.7576 74.5851L83.0235 44.5586L87.6816 74.5851" stroke="white" stroke-width="4" stroke-linecap="round" stroke-linejoin="round"/>
</svg>
