<svg width="252" height="252" viewBox="0 0 252 252" fill="none" xmlns="http://www.w3.org/2000/svg">
<path d="M165.375 78.75C173.332 78.75 181.002 79.7754 188.385 81.8262C195.768 83.877 202.658 86.7891 209.057 90.5625C215.455 94.3359 221.32 98.8477 226.652 104.098C231.984 109.348 236.496 115.172 240.188 121.57C243.879 127.969 246.791 134.9 248.924 142.365C251.057 149.83 252.082 157.5 252 165.375C252 173.332 250.975 181.002 248.924 188.385C246.873 195.768 243.961 202.658 240.188 209.057C236.414 215.455 231.902 221.32 226.652 226.652C221.402 231.984 215.578 236.496 209.18 240.188C202.781 243.879 195.85 246.791 188.385 248.924C180.92 251.057 173.25 252.082 165.375 252C157.418 252 149.748 250.975 142.365 248.924C134.982 246.873 128.092 243.961 121.693 240.188C115.295 236.414 109.43 231.902 104.098 226.652C98.7656 221.402 94.2539 215.578 90.5625 209.18C86.8711 202.781 83.959 195.85 81.8262 188.385C79.6934 180.92 78.668 173.25 78.75 165.375C78.75 162.75 78.873 160.125 79.1191 157.5C68.209 157.5 57.9551 155.449 48.3574 151.348C38.7598 147.246 30.3926 141.668 23.2559 134.613C16.1191 127.559 10.459 119.232 6.27539 109.635C2.0918 100.037 0 89.7422 0 78.75C0 71.5312 0.943359 64.5586 2.83008 57.832C4.7168 51.1055 7.3418 44.8301 10.7051 39.0059C14.0684 33.1816 18.1699 27.8906 23.0098 23.1328C27.8496 18.375 33.1816 14.2734 39.0059 10.8281C44.8301 7.38281 51.1055 4.7168 57.832 2.83008C64.5586 0.943359 71.5312 0 78.75 0C86.0508 0 93.0645 0.943359 99.791 2.83008C106.518 4.7168 112.793 7.38281 118.617 10.8281C124.441 14.2734 129.732 18.375 134.49 23.1328C139.248 27.8906 143.35 33.2227 146.795 39.1289C150.24 45.0352 152.865 51.3516 154.67 58.0781C156.475 64.8047 157.418 71.8184 157.5 79.1191C160.043 78.873 162.668 78.75 165.375 78.75ZM78.75 141.75C79.3242 141.75 79.8984 141.709 80.4727 141.627C81.0469 141.545 81.6211 141.463 82.1953 141.381C83.6719 136.213 85.5996 131.291 87.9785 126.615C90.3574 121.939 93.1875 117.428 96.4688 113.08C93.5977 112.178 90.6855 111.48 87.7324 110.988C84.7793 110.496 81.7852 110.25 78.75 110.25C73.7461 110.25 68.8652 110.865 64.1074 112.096C59.3496 113.326 54.7148 115.09 50.2031 117.387L43.0664 103.359C48.6445 100.57 54.4277 98.3965 60.416 96.8379C66.4043 95.2793 72.5156 94.5 78.75 94.5C83.8359 94.5 88.7988 95.0332 93.6387 96.0996C98.4785 97.166 103.277 98.6426 108.035 100.529C112.875 96.2637 118.084 92.5723 123.662 89.4551C129.24 86.3379 135.146 83.918 141.381 82.1953L141.627 80.4727C141.709 79.8984 141.75 79.3242 141.75 78.75C141.75 70.0547 140.109 61.8926 136.828 54.2637C133.547 46.6348 129.035 39.9902 123.293 34.3301C117.551 28.6699 110.865 24.1582 103.236 20.7949C95.6074 17.4316 87.4453 15.75 78.75 15.75C70.0547 15.75 61.8926 17.3906 54.2637 20.6719C46.6348 23.9531 39.9902 28.4648 34.3301 34.207C28.6699 39.9492 24.1582 46.6348 20.7949 54.2637C17.4316 61.8926 15.75 70.0547 15.75 78.75C15.75 87.4453 17.3906 95.6074 20.6719 103.236C23.9531 110.865 28.4648 117.51 34.207 123.17C39.9492 128.83 46.6348 133.342 54.2637 136.705C61.8926 140.068 70.0547 141.75 78.75 141.75ZM165.375 236.25C175.137 236.25 184.324 234.404 192.938 230.713C201.551 227.021 209.057 221.936 215.455 215.455C221.854 208.975 226.898 201.469 230.59 192.938C234.281 184.406 236.168 175.219 236.25 165.375C236.25 155.613 234.404 146.426 230.713 137.812C227.021 129.199 221.936 121.693 215.455 115.295C208.975 108.896 201.469 103.852 192.938 100.16C184.406 96.4688 175.219 94.582 165.375 94.5C155.613 94.5 146.426 96.3457 137.812 100.037C129.199 103.729 121.693 108.814 115.295 115.295C108.896 121.775 103.852 129.281 100.16 137.812C96.4688 146.344 94.582 155.531 94.5 165.375C94.5 175.137 96.3457 184.324 100.037 192.938C103.729 201.551 108.814 209.057 115.295 215.455C121.775 221.854 129.281 226.898 137.812 230.59C146.344 234.281 155.531 236.168 165.375 236.25ZM196.875 161.438C193.594 161.438 190.805 160.289 188.508 157.992C186.211 155.695 185.062 152.906 185.062 149.625C185.062 146.344 186.211 143.555 188.508 141.258C190.805 138.961 193.594 137.812 196.875 137.812C200.156 137.812 202.945 138.961 205.242 141.258C207.539 143.555 208.688 146.344 208.688 149.625C208.688 152.906 207.539 155.695 205.242 157.992C202.945 160.289 200.156 161.438 196.875 161.438ZM133.875 161.438C130.594 161.438 127.805 160.289 125.508 157.992C123.211 155.695 122.062 152.906 122.062 149.625C122.062 146.344 123.211 143.555 125.508 141.258C127.805 138.961 130.594 137.812 133.875 137.812C137.156 137.812 139.945 138.961 142.242 141.258C144.539 143.555 145.688 146.344 145.688 149.625C145.688 152.906 144.539 155.695 142.242 157.992C139.945 160.289 137.156 161.438 133.875 161.438ZM165.375 204.75C168.902 204.75 172.348 204.299 175.711 203.396C179.074 202.494 182.232 201.141 185.186 199.336C188.139 197.531 190.846 195.398 193.307 192.938C195.768 190.477 197.859 187.688 199.582 184.57L213.24 192.322C210.779 196.67 207.826 200.566 204.381 204.012C200.936 207.457 197.162 210.41 193.061 212.871C188.959 215.332 184.57 217.219 179.895 218.531C175.219 219.844 170.379 220.5 165.375 220.5C160.371 220.5 155.531 219.844 150.855 218.531C146.18 217.219 141.791 215.373 137.689 212.994C133.588 210.615 129.814 207.662 126.369 204.135C122.924 200.607 119.971 196.67 117.51 192.322L131.168 184.57C132.891 187.688 134.982 190.477 137.443 192.938C139.904 195.398 142.611 197.49 145.564 199.213C148.518 200.936 151.635 202.289 154.916 203.273C158.197 204.258 161.684 204.75 165.375 204.75ZM55.125 64.9688C52.418 64.9688 50.1211 64.0254 48.2344 62.1387C46.3477 60.252 45.3633 57.9141 45.2812 55.125C45.2812 52.418 46.2246 50.1211 48.1113 48.2344C49.998 46.3477 52.3359 45.3633 55.125 45.2812C57.832 45.2812 60.1289 46.2246 62.0156 48.1113C63.9023 49.998 64.8867 52.3359 64.9688 55.125C64.9688 57.832 64.0254 60.1289 62.1387 62.0156C60.252 63.9023 57.9141 64.8867 55.125 64.9688ZM102.375 64.9688C99.668 64.9688 97.3711 64.0254 95.4844 62.1387C93.5977 60.252 92.6133 57.9141 92.5312 55.125C92.5312 52.418 93.4746 50.1211 95.3613 48.2344C97.248 46.3477 99.5859 45.3633 102.375 45.2812C105.082 45.2812 107.379 46.2246 109.266 48.1113C111.152 49.998 112.137 52.3359 112.219 55.125C112.219 57.832 111.275 60.1289 109.389 62.0156C107.502 63.9023 105.164 64.8867 102.375 64.9688Z" fill="#E7E8EC"/>
</svg>
