<svg width="154" height="193" viewBox="0 0 154 193" fill="none" xmlns="http://www.w3.org/2000/svg">
<path d="M19.25 192.5C13.9562 192.5 9.42608 190.617 5.6595 186.85C1.89291 183.084 0.00641667 178.55 0 173.25V19.25C0 13.9562 1.8865 9.42608 5.6595 5.6595C9.4325 1.89292 13.9627 0.00641667 19.25 0H134.75C140.044 0 144.577 1.8865 148.35 5.6595C152.123 9.4325 154.006 13.9627 154 19.25V173.25C154 178.544 152.117 183.077 148.35 186.85C144.584 190.623 140.05 192.506 134.75 192.5H19.25ZM19.25 173.25H134.75V19.25H115.5V86.625L91.4375 72.1875L67.375 86.625V19.25H19.25V173.25Z" fill="#E7E8EC"/>
</svg>
