<svg width="157" height="196" viewBox="0 0 157 196" fill="none" xmlns="http://www.w3.org/2000/svg">
<path d="M15.0575 119.14C9.63353 119.14 6.9935 125.766 10.931 129.496L74.0847 189.326C76.3989 191.518 80.0235 191.518 82.3377 189.326L145.491 129.496C149.429 125.766 146.789 119.14 141.365 119.14H113.026C109.712 119.14 107.026 116.454 107.026 113.14V51.0453C107.026 47.7316 104.34 45.0453 101.026 45.0453H55.3966C52.0828 45.0453 49.3966 47.7316 49.3966 51.0453V113.14C49.3966 116.454 46.7103 119.14 43.3966 119.14H15.0575Z" fill="#E3E086" stroke="#E3E086" stroke-width="9" stroke-linecap="round" stroke-linejoin="round"/>
<path d="M141.365 76.3298C146.789 76.3298 149.429 69.7044 145.492 65.9741L82.3381 6.14428C80.0239 3.9519 76.3994 3.95189 74.0852 6.14427L10.9315 65.9741C6.99395 69.7044 9.63399 76.3298 15.0579 76.3298H43.397C46.7107 76.3298 49.397 79.0161 49.397 82.3298V144.425C49.397 147.738 52.0833 150.425 55.397 150.425H101.026C104.34 150.425 107.026 147.738 107.026 144.425V82.3298C107.026 79.0161 109.713 76.3298 113.026 76.3298H141.365Z" fill="#E3E086" stroke="#E3E086" stroke-width="9" stroke-linecap="round" stroke-linejoin="round"/>
</svg>
